<svg aria-hidden="true" style="width:0;height:0;position:absolute;overflow:hidden" xmlns="http://www.w3.org/2000/svg"><defs><symbol id="icon-logo" viewBox="0 0 32 32"><path fill="none" stroke-linejoin="round" stroke-linecap="round" stroke-width="2.667" d="M26.427 2.667H5.574a2.907 2.907 0 0 0-2.907 2.907v20.853a2.907 2.907 0 0 0 2.907 2.907h20.853a2.907 2.907 0 0 0 2.907-2.907V5.574a2.907 2.907 0 0 0-2.907-2.907zM9.333 2.667v26.667M22.667 2.667v26.667M2.667 16h26.667M2.667 9.333h6.667M2.667 22.667h6.667M22.667 22.667h6.667M22.667 9.333h6.667"/></symbol><symbol id="icon-btn-close" viewBox="0 0 30 32"><path d="m16.219 14.826 4.928-4.924a1.012 1.012 0 0 0-1.43-1.428l-4.928 4.873-4.958-4.954a1.013 1.013 0 0 0-1.43 1.428l4.948 5.005-4.846 4.782a1.002 1.002 0 0 0-.284 1.139 1.014 1.014 0 0 0 1.714.29l4.836-4.833 4.806 4.802a1.013 1.013 0 0 0 1.43-1.428l-4.786-4.751z"/></symbol><symbol id="icon-heart" viewBox="0 0 34 32"><path d="m17.231 31.705-2.412-2.412C5.859 21.367.001 16.025.001 9.478.001 4.136 4.136.001 9.478.001c2.929 0 5.858 1.378 7.754 3.618 1.895-2.24 4.825-3.618 7.754-3.618 5.342 0 9.477 4.135 9.477 9.477 0 6.548-5.858 11.889-14.818 19.815l-2.412 2.412z"/></symbol><symbol id="icon-sun" viewBox="0 0 32 32"><path d="M16 8a8 8 0 1 0 0 16 8 8 0 0 0 0-16zm0 13V11c2.757 0 5 2.243 5 5s-2.243 5-5 5zm0 5a2 2 0 0 1 2 2v2a2 2 0 1 1-4 0v-2a2 2 0 0 1 2-2zm0-20a2 2 0 0 1-2-2V2a2 2 0 1 1 4 0v2a2 2 0 0 1-2 2zm14 8a2 2 0 1 1 0 4h-2a2 2 0 1 1 0-4h2zM6 16a2 2 0 0 1-2 2H2a2 2 0 1 1 0-4h2a2 2 0 0 1 2 2zm19.899 7.071 1.414 1.414a2 2 0 1 1-2.828 2.828l-1.414-1.414a2 2 0 1 1 2.828-2.828zM6.101 8.929 4.687 7.515a2 2 0 1 1 2.828-2.828l1.414 1.414a2 2 0 1 1-2.828 2.828zm19.798 0a2 2 0 1 1-2.828-2.828l1.414-1.414a2 2 0 1 1 2.828 2.828l-1.414 1.414zM6.101 23.071a2 2 0 1 1 2.828 2.828l-1.414 1.414a2 2 0 1 1-2.828-2.828l1.414-1.414z"/></symbol><symbol id="icon-moon" viewBox="0 0 20 20"><path d="M13.719 1.8A8.759 8.759 0 1 1 1.8 13.719c3.335 1.867 7.633 1.387 10.469-1.449s3.318-7.134 1.45-10.47z"/></symbol><symbol id="icon-search" viewBox="0 0 32 32"><path fill="none" stroke-linejoin="round" stroke-linecap="round" stroke-width="2.667" d="M14.667 25.333c5.891 0 10.667-4.776 10.667-10.667S20.558 3.999 14.667 3.999 4 8.775 4 14.666s4.776 10.667 10.667 10.667zM28 28.001l-5.8-5.8"/></symbol><symbol id="icon-arrow" viewBox="0 0 32 32"><path d="M16 2.667 6 27.054l.947.947 9.053-4 9.053 4 .947-.947L16 2.667z"/></symbol></defs></svg>