<svg aria-hidden="true" style="width:0;height:0;position:absolute;overflow:hidden" xmlns="http://www.w3.org/2000/svg"><defs><symbol id="icon-logo" viewBox="0 0 32 32"><path fill="none" stroke="#fff" style="stroke:var(--color1,#fff)" stroke-linejoin="round" stroke-linecap="round" stroke-width="2.667" d="M26.427 2.667H5.574a2.907 2.907 0 0 0-2.907 2.907v20.853a2.907 2.907 0 0 0 2.907 2.907h20.853a2.907 2.907 0 0 0 2.907-2.907V5.574a2.907 2.907 0 0 0-2.907-2.907zM9.333 2.667v26.667M22.667 2.667v26.667M2.667 16h26.667M2.667 9.333h6.667M2.667 22.667h6.667M22.667 22.667h6.667M22.667 9.333h6.667"/></symbol><symbol id="icon-btn-close" viewBox="0 0 30 32"><path d="m16.219 14.826 4.928-4.924a1.012 1.012 0 0 0-1.43-1.428l-4.928 4.873-4.958-4.954a1.013 1.013 0 0 0-1.43 1.428l4.948 5.005-4.846 4.782a1.002 1.002 0 0 0-.284 1.139 1.014 1.014 0 0 0 1.714.29l4.836-4.833 4.806 4.802a1.013 1.013 0 0 0 1.43-1.428l-4.786-4.751z"/></symbol></defs></svg>